<svg width="115" height="52" fill="none" xmlns="http://www.w3.org/2000/svg"><path d="M44.585 32V20.364h4.364c.894 0 1.644.155 2.25.465.61.311 1.07.747 1.38 1.307.315.557.472 1.207.472 1.95 0 .745-.159 1.393-.477 1.942-.314.546-.779.968-1.392 1.268-.614.295-1.368.443-2.262.443h-3.108v-1.75h2.824c.523 0 .951-.072 1.284-.216.334-.148.58-.362.74-.642.162-.284.243-.633.243-1.046 0-.413-.081-.765-.244-1.057a1.554 1.554 0 0 0-.744-.67c-.334-.155-.764-.233-1.29-.233h-1.932V32h-2.108Zm6.012-5.273L53.477 32h-2.352l-2.83-5.273h2.302Zm8.042 5.443c-.875 0-1.63-.181-2.267-.545a3.694 3.694 0 0 1-1.46-1.557c-.341-.674-.511-1.468-.511-2.38 0-.898.17-1.686.51-2.364a3.866 3.866 0 0 1 1.444-1.591c.617-.383 1.343-.574 2.176-.574.538 0 1.046.087 1.523.262.481.17.905.435 1.273.795.37.36.663.818.875 1.375.212.553.318 1.212.318 1.977v.63h-7.154v-1.386h5.182a2.212 2.212 0 0 0-.255-1.05 1.86 1.86 0 0 0-.7-.734 1.965 1.965 0 0 0-1.033-.267c-.42 0-.79.103-1.108.307-.319.2-.567.466-.745.796a2.289 2.289 0 0 0-.267 1.073v1.21c0 .508.093.944.279 1.308.185.36.445.636.778.83.334.189.724.283 1.17.283.3 0 .57-.042.813-.125.242-.087.453-.214.63-.38.179-.167.313-.374.404-.62l1.92.216c-.12.508-.352.95-.692 1.33a3.38 3.38 0 0 1-1.296.875c-.526.204-1.129.306-1.807.306Zm9.979-8.897v1.59H63.6v-1.59h5.017Zm-3.778-2.091h2.056v8.193c0 .276.042.489.125.636.087.144.201.243.341.296.14.053.296.08.466.08.129 0 .246-.01.352-.029.11-.019.194-.036.25-.051l.347 1.608c-.11.038-.267.08-.472.125-.2.045-.447.072-.738.08a3.354 3.354 0 0 1-1.392-.234 2.165 2.165 0 0 1-.983-.806c-.239-.364-.356-.819-.352-1.364v-8.534ZM74.05 32.17c-.852 0-1.59-.187-2.216-.562a3.82 3.82 0 0 1-1.454-1.574c-.341-.674-.512-1.462-.512-2.363 0-.902.17-1.692.512-2.37a3.812 3.812 0 0 1 1.454-1.58c.625-.374 1.364-.562 2.216-.562.852 0 1.591.188 2.216.563a3.775 3.775 0 0 1 1.449 1.58c.345.677.517 1.467.517 2.369 0 .901-.172 1.689-.517 2.363a3.783 3.783 0 0 1-1.449 1.574c-.625.375-1.364.562-2.216.562Zm.011-1.647c.463 0 .849-.127 1.16-.381.31-.258.541-.602.693-1.034.155-.432.233-.913.233-1.443 0-.534-.078-1.017-.233-1.45-.152-.435-.383-.781-.693-1.039-.311-.257-.697-.386-1.16-.386-.473 0-.867.129-1.181.386-.31.258-.544.604-.7 1.04a4.356 4.356 0 0 0-.227 1.449c0 .53.076 1.011.228 1.443.155.432.388.776.699 1.034.314.254.708.38 1.181.38Zm11.48-2.194v-5.056h2.056V32h-1.994v-1.551h-.091c-.197.488-.521.888-.972 1.199-.447.31-.998.466-1.653.466-.572 0-1.078-.127-1.517-.381a2.646 2.646 0 0 1-1.023-1.12c-.246-.492-.37-1.087-.37-1.784v-5.556h2.058v5.238c0 .553.151.993.454 1.319.303.325.7.488 1.193.488.303 0 .597-.074.88-.221a1.79 1.79 0 0 0 .7-.66c.185-.295.278-.664.278-1.108ZM89.712 32v-8.727h1.994v1.454h.091c.16-.503.432-.892.819-1.165.39-.276.835-.414 1.335-.414.113 0 .24.005.38.017.144.007.264.02.358.04v1.892a2.167 2.167 0 0 0-.414-.08 3.82 3.82 0 0 0-.54-.04 2.08 2.08 0 0 0-1.012.245c-.295.159-.528.38-.698.664-.17.285-.256.612-.256.983V32h-2.057Z" fill="#383E42"/><path d="M22.113 31.67 16 25.836 22.113 20M16 25.835h11.9" stroke="#383E42" stroke-width="1.5" stroke-linecap="round" stroke-linejoin="round"/></svg>